<?xml version="1.0" encoding="UTF-8"?>
<svg version="1.1" xmlns="http://www.w3.org/2000/svg" width="178" height="200">
<path d="M0 0 C58.74 0 117.48 0 178 0 C178 66 178 132 178 200 C119.26 200 60.52 200 0 200 C0 134 0 68 0 0 Z " fill="#FBF9F9" transform="translate(0,0)"/>
<path d="M0 0 C58.74 0 117.48 0 178 0 C178 66 178 132 178 200 C119.26 200 60.52 200 0 200 C0 134 0 68 0 0 Z M17 6 C16.09015479 42.28007787 15.91165031 78.52276066 15.9375 114.8125 C15.93835602 116.02270184 15.93921204 117.23290367 15.94009399 118.47977829 C15.95161225 133.65319985 15.97186886 148.8266005 16 164 C18.51677113 165.25838557 20.41293288 165.20818973 23.2265625 165.31640625 C24.2578125 165.35830078 25.2890625 165.40019531 26.3515625 165.44335938 C27.43179687 165.48267578 28.51203125 165.52199219 29.625 165.5625 C31.25695312 165.62727539 31.25695312 165.62727539 32.921875 165.69335938 C35.6144257 165.79964427 38.30719576 165.90034504 41 166 C41.33 169.96 41.66 173.92 42 178 C51.24 178 60.48 178 70 178 C70 181.96 70 185.92 70 190 C108.01447234 190.25273084 108.01447234 190.25273084 146 189 C146 185.37 146 181.74 146 178 C142.7 177.67 139.4 177.34 136 177 C135.67 168.09 135.34 159.18 135 150 C139.29 150 143.58 150 148 150 C148 158.91 148 167.82 148 177 C151.96 177 155.92 177 160 177 C160 130.14 160 83.28 160 35 C154.08401129 34.40840113 148.74558882 33.87502061 142.8984375 33.90234375 C141.05185547 33.90717773 141.05185547 33.90717773 139.16796875 33.91210938 C137.91628906 33.92048828 136.66460937 33.92886719 135.375 33.9375 C133.43947266 33.94426758 133.43947266 33.94426758 131.46484375 33.95117188 C128.30987549 33.96285694 125.15493141 33.98078865 122 34 C122 29.38 122 24.76 122 20 C113.42 20 104.84 20 96 20 C96 15.38 96 10.76 96 6 C69.93 6 43.86 6 17 6 Z " fill="#010101" transform="translate(0,0)"/>
<path d="M0 0 C26.07 0 52.14 0 79 0 C79 4.62 79 9.24 79 14 C87.58 14 96.16 14 105 14 C105 18.62 105 23.24 105 28 C100.05 28 95.1 28 90 28 C90 31.96 90 35.92 90 40 C83.03996034 40.02464201 76.07994584 40.04283222 69.11987305 40.05493164 C66.75007688 40.05997341 64.38028385 40.06680665 62.01049805 40.07543945 C58.61245961 40.0875119 55.21446215 40.09322971 51.81640625 40.09765625 C50.74975235 40.10281754 49.68309845 40.10797882 48.5841217 40.11329651 C47.60318039 40.11337204 46.62223907 40.11344757 45.61157227 40.11352539 C44.30918358 40.11685631 44.30918358 40.11685631 42.98048401 40.12025452 C41 40 41 40 40 39 C39.85689713 35.3308423 39.95778338 31.67284559 40 28 C44.62 28 49.24 28 54 28 C53.979375 25.875625 53.95875 23.75125 53.9375 21.5625 C53.91626217 19.37500389 53.92741054 17.18639453 54 15 C55 14 55 14 57.22485352 13.88647461 C58.18319092 13.89171143 59.14152832 13.89694824 60.12890625 13.90234375 C61.68061523 13.90717773 61.68061523 13.90717773 63.26367188 13.91210938 C64.35228516 13.92048828 65.44089844 13.92886719 66.5625 13.9375 C68.2012207 13.94426758 68.2012207 13.94426758 69.87304688 13.95117188 C72.58205432 13.9630016 75.2910338 13.98093769 78 14 C78 9.71 78 5.42 78 1 C56.55 1 35.1 1 13 1 C13 4.96 13 8.92 13 13 C9.37 13.33 5.74 13.66 2 14 C1.67 22.91 1.34 31.82 1 41 C8.92 41 16.84 41 25 41 C25 44.96 25 48.92 25 53 C17.08 53 9.16 53 1 53 C1 79.07 1 105.14 1 132 C5.62 132 10.24 132 15 132 C15 135.63 15 139.26 15 143 C27.54 143.33 40.08 143.66 53 144 C53 148.62 53 153.24 53 158 C65.54 157.67 78.08 157.34 91 157 C91 161.95 91 166.9 91 172 C95.29 171.67 99.58 171.34 104 171 C104.33 140.64 104.66 110.28 105 79 C92.13 79 79.26 79 66 79 C66 75.37 66 71.74 66 68 C83.16 67.67 100.32 67.34 118 67 C118 63.04 118 59.08 118 55 C118.99 54.01 118.99 54.01 120 53 C127.59 53 135.18 53 143 53 C143 91.94 143 130.88 143 171 C139.04 171 135.08 171 131 171 C131 162.09 131 153.18 131 144 C126.71 144 122.42 144 118 144 C118.33 152.91 118.66 161.82 119 171 C122.3 171.33 125.6 171.66 129 172 C129 175.63 129 179.26 129 183 C103.68505949 184.40918158 78.34388519 184.0962801 53 184 C53 180.04 53 176.08 53 172 C43.76 172 34.52 172 25 172 C24.67 168.04 24.34 164.08 24 160 C22.36289062 159.93941406 20.72578125 159.87882813 19.0390625 159.81640625 C16.9010322 159.73201032 14.76301186 159.64736185 12.625 159.5625 C11.54476563 159.52318359 10.46453125 159.48386719 9.3515625 159.44335938 C8.3203125 159.40146484 7.2890625 159.35957031 6.2265625 159.31640625 C4.79691162 159.26141968 4.79691162 159.26141968 3.33837891 159.20532227 C1 159 1 159 -1 158 C-1.03039749 141.60417491 -1.05090264 125.20834934 -1.0625 108.8125 C-1.06378403 107.00988646 -1.06378403 107.00988646 -1.06509399 105.17085648 C-1.08719226 70.09483093 -0.87941564 35.06669854 0 0 Z " fill="#8F9292" transform="translate(17,6)"/>
<path d="M0 0 C21.45 0 42.9 0 65 0 C65 4.29 65 8.58 65 13 C57.41 13.33 49.82 13.66 42 14 C41.67 18.29 41.34 22.58 41 27 C36.38 27 31.76 27 27 27 C27.495 32.445 27.495 32.445 28 38 C52.255 38.495 52.255 38.495 77 39 C77 35.04 77 31.08 77 27 C82.94075217 26.97511607 88.8814734 26.9570535 94.82226562 26.94506836 C96.83952361 26.94006716 98.85677803 26.93326406 100.87402344 26.92456055 C103.78842048 26.91230913 106.70276923 26.90672941 109.6171875 26.90234375 C110.50614716 26.89718246 111.39510681 26.89202118 112.31100464 26.88670349 C113.60121017 26.88659019 113.60121017 26.88659019 114.91748047 26.88647461 C116.03000687 26.88314369 116.03000687 26.88314369 117.16500854 26.87974548 C121.45574593 27.06174975 125.72671749 27.57267175 130 28 C130 35.92 130 43.84 130 52 C118.5625 52.4375 118.5625 52.4375 114.95141602 52.56811523 C114.01998779 52.60622314 113.08855957 52.64433105 112.12890625 52.68359375 C111.17056885 52.72025146 110.21223145 52.75690918 109.22485352 52.79467773 C107.02861075 52.75834424 107.02861075 52.75834424 106 54 C105.76572222 56.01594582 105.58663876 58.038474 105.4375 60.0625 C105.29166667 62.04166667 105.14583333 64.02083333 105 66 C93.88631803 67.13009697 82.84518228 67.11658919 71.6875 67.0625 C69.86783978 67.05747197 68.04817821 67.05291138 66.22851562 67.04882812 C61.8189763 67.03793265 57.40950355 67.02074084 53 67 C53 70.63 53 74.26 53 78 C65.87 78 78.74 78 92 78 C92 78.33 92 78.66 92 79 C78.8 79 65.6 79 52 79 C52 75.04 52 71.08 52 67 C39.13 67 26.26 67 13 67 C13 62.38 13 57.76 13 53 C0.625 53.495 0.625 53.495 -12 54 C-12 53.34 -12 52.68 -12 52 C-4.08 52 3.84 52 12 52 C12 48.04 12 44.08 12 40 C4.08 40 -3.84 40 -12 40 C-12.02682159 35.52079403 -12.04675177 31.04174649 -12.0625 26.5625 C-12.07087891 25.28310547 -12.07925781 24.00371094 -12.08789062 22.68554688 C-12.09111328 21.47060547 -12.09433594 20.25566406 -12.09765625 19.00390625 C-12.10289307 17.87799072 -12.10812988 16.7520752 -12.11352539 15.59204102 C-12 13 -12 13 -11 12 C-7.3308423 11.85689713 -3.67284559 11.95778338 0 12 C0 8.04 0 4.08 0 0 Z " fill="#929597" transform="translate(30,7)"/>
<path d="M0 0 C26.07 0 52.14 0 79 0 C79 4.62 79 9.24 79 14 C87.58 14 96.16 14 105 14 C105 18.62 105 23.24 105 28 C100.05 28 95.1 28 90 28 C90 31.96 90 35.92 90 40 C83.03996034 40.02464201 76.07994584 40.04283222 69.11987305 40.05493164 C66.75007688 40.05997341 64.38028385 40.06680665 62.01049805 40.07543945 C58.61245961 40.0875119 55.21446215 40.09322971 51.81640625 40.09765625 C50.74975235 40.10281754 49.68309845 40.10797882 48.5841217 40.11329651 C47.60318039 40.11337204 46.62223907 40.11344757 45.61157227 40.11352539 C44.30918358 40.11685631 44.30918358 40.11685631 42.98048401 40.12025452 C41 40 41 40 40 39 C39.85689713 35.3308423 39.95778338 31.67284559 40 28 C44.62 28 49.24 28 54 28 C53.979375 25.875625 53.95875 23.75125 53.9375 21.5625 C53.91626217 19.37500389 53.92741054 17.18639453 54 15 C55 14 55 14 57.22485352 13.88647461 C58.18319092 13.89171143 59.14152832 13.89694824 60.12890625 13.90234375 C61.68061523 13.90717773 61.68061523 13.90717773 63.26367188 13.91210938 C64.35228516 13.92048828 65.44089844 13.92886719 66.5625 13.9375 C68.2012207 13.94426758 68.2012207 13.94426758 69.87304688 13.95117188 C72.58205432 13.9630016 75.2910338 13.98093769 78 14 C78 9.71 78 5.42 78 1 C56.55 1 35.1 1 13 1 C13 4.96 13 8.92 13 13 C9.37 13.33 5.74 13.66 2 14 C1.67 22.91 1.34 31.82 1 41 C8.92 41 16.84 41 25 41 C25 44.96 25 48.92 25 53 C17.08 53 9.16 53 1 53 C1 79.07 1 105.14 1 132 C5.62 132 10.24 132 15 132 C15 135.63 15 139.26 15 143 C27.54 143.33 40.08 143.66 53 144 C53 148.62 53 153.24 53 158 C65.54 157.67 78.08 157.34 91 157 C91 161.95 91 166.9 91 172 C94.1865625 171.9690625 94.1865625 171.9690625 97.4375 171.9375 C99.62499611 171.91626217 101.81360547 171.92741054 104 172 C105 173 105 173 105.09765625 175.28515625 C105.08605469 176.20167969 105.07445313 177.11820313 105.0625 178.0625 C105.05347656 178.98160156 105.04445313 179.90070313 105.03515625 180.84765625 C105.02355469 181.55792969 105.01195313 182.26820313 105 183 C102.53838983 184.23080509 100.93503007 184.12043977 98.18310547 184.11352539 C97.18221893 184.11344986 96.1813324 184.11337433 95.15011597 184.11329651 C94.06674957 184.10813522 92.98338318 184.10297394 91.8671875 184.09765625 C90.76021515 184.0962413 89.6532428 184.09482635 88.51272583 184.09336853 C84.96679007 184.08775772 81.42091677 184.07520337 77.875 184.0625 C75.47526133 184.05748639 73.07552167 184.05292325 70.67578125 184.04882812 C64.78382999 184.03778478 58.8919256 184.02051286 53 184 C53 180.04 53 176.08 53 172 C43.76 172 34.52 172 25 172 C24.67 168.04 24.34 164.08 24 160 C22.36289062 159.93941406 20.72578125 159.87882813 19.0390625 159.81640625 C16.9010322 159.73201032 14.76301186 159.64736185 12.625 159.5625 C11.54476563 159.52318359 10.46453125 159.48386719 9.3515625 159.44335938 C8.3203125 159.40146484 7.2890625 159.35957031 6.2265625 159.31640625 C4.79691162 159.26141968 4.79691162 159.26141968 3.33837891 159.20532227 C1 159 1 159 -1 158 C-1.03039749 141.60417491 -1.05090264 125.20834934 -1.0625 108.8125 C-1.06378403 107.00988646 -1.06378403 107.00988646 -1.06509399 105.17085648 C-1.08719226 70.09483093 -0.87941564 35.06669854 0 0 Z " fill="#BF736A" transform="translate(17,6)"/>
<path d="M0 0 C21.45 0 42.9 0 65 0 C65 4.29 65 8.58 65 13 C57.41 13.33 49.82 13.66 42 14 C41.67 18.29 41.34 22.58 41 27 C36.38 27 31.76 27 27 27 C27.495 32.445 27.495 32.445 28 38 C35.92 38.33 43.84 38.66 52 39 C52 43.62 52 48.24 52 53 C39.46 53 26.92 53 14 53 C14 48.38 14 43.76 14 39 C12.20691406 39.01160156 10.41382812 39.02320313 8.56640625 39.03515625 C6.23177187 39.04453229 3.89713637 39.05363269 1.5625 39.0625 C-0.21350586 39.07506836 -0.21350586 39.07506836 -2.02539062 39.08789062 C-3.15009766 39.09111328 -4.27480469 39.09433594 -5.43359375 39.09765625 C-6.99678345 39.10551147 -6.99678345 39.10551147 -8.59155273 39.11352539 C-11 39 -11 39 -12 38 C-12.09959621 36.15840977 -12.13080411 34.31303033 -12.1328125 32.46875 C-12.13410156 31.34855469 -12.13539062 30.22835937 -12.13671875 29.07421875 C-12.13285156 27.89472656 -12.12898438 26.71523438 -12.125 25.5 C-12.12886719 24.32050781 -12.13273437 23.14101563 -12.13671875 21.92578125 C-12.13542969 20.80558594 -12.13414063 19.68539063 -12.1328125 18.53125 C-12.13168457 17.49548828 -12.13055664 16.45972656 -12.12939453 15.39257812 C-12 13 -12 13 -11 12 C-7.3308423 11.85689713 -3.67284559 11.95778338 0 12 C0 8.04 0 4.08 0 0 Z " fill="#DDC9C4" transform="translate(30,7)"/>
<path d="M0 0 C4.29 0 8.58 0 13 0 C14.32229189 2.64458379 14.09677194 4.67761301 14.0625 7.625 C14.05347656 8.62789062 14.04445313 9.63078125 14.03515625 10.6640625 C14.02355469 11.43492188 14.01195312 12.20578125 14 13 C14.91523437 12.97679688 15.83046875 12.95359375 16.7734375 12.9296875 C17.96195313 12.91164063 19.15046875 12.89359375 20.375 12.875 C21.55835937 12.85179688 22.74171875 12.82859375 23.9609375 12.8046875 C27 13 27 13 29 15 C29.27240673 18.01826653 29.08675125 20.96370622 29 24 C31.97 24 34.94 24 38 24 C37.979375 22.55625 37.95875 21.1125 37.9375 19.625 C37.875 15.25 37.875 15.25 39 13 C43.62 13 48.24 13 53 13 C53 30.16 53 47.32 53 65 C44.36756399 65 36.47746117 64.91648229 28 64 C27.67 60.37 27.34 56.74 27 53 C18.09 53 9.18 53 0 53 C0 35.51 0 18.02 0 0 Z " fill="#E38483" transform="translate(43,85)"/>
<path d="M0 0 C1.00023193 0.00523682 2.00046387 0.01047363 3.03100586 0.01586914 C4.1105957 0.0190918 5.19018555 0.02231445 6.30249023 0.02563477 C8.00695312 0.03820313 8.00695312 0.03820313 9.74584961 0.05102539 C11.45611328 0.05779297 11.45611328 0.05779297 13.20092773 0.06469727 C16.02842379 0.07652779 18.85589306 0.09446389 21.68334961 0.11352539 C21.68334961 4.73352539 21.68334961 9.35352539 21.68334961 14.11352539 C34.55334961 14.11352539 47.42334961 14.11352539 60.68334961 14.11352539 C60.68334961 18.07352539 60.68334961 22.03352539 60.68334961 26.11352539 C73.88334961 26.11352539 87.08334961 26.11352539 100.68334961 26.11352539 C100.72345842 48.78391573 100.72345842 48.78391573 100.73217773 58.41235352 C100.7381665 64.9944743 100.74526768 71.57658123 100.75878906 78.15869141 C100.76961686 83.46249099 100.77562621 88.76627574 100.77822685 94.07008553 C100.7800813 96.09838151 100.78370228 98.12667665 100.78907967 100.15496635 C100.79628867 102.98549053 100.79734061 105.81595257 100.796875 108.64648438 C100.80047028 109.4938063 100.80406555 110.34112823 100.80776978 111.21412659 C100.79740177 116.99947323 100.79740177 116.99947323 99.68334961 118.11352539 C95.34804043 118.25745996 91.02177229 118.155646 86.68334961 118.11352539 C86.68334961 113.16352539 86.68334961 108.21352539 86.68334961 103.11352539 C87.34334961 103.44352539 88.00334961 103.77352539 88.68334961 104.11352539 C88.68334961 107.74352539 88.68334961 111.37352539 88.68334961 115.11352539 C94.12834961 115.60852539 94.12834961 115.60852539 99.68334961 116.11352539 C99.68334961 86.74352539 99.68334961 57.37352539 99.68334961 27.11352539 C95.39334961 27.11352539 91.10334961 27.11352539 86.68334961 27.11352539 C86.68334961 30.74352539 86.68334961 34.37352539 86.68334961 38.11352539 C83.05334961 38.11352539 79.42334961 38.11352539 75.68334961 38.11352539 C75.68334961 42.07352539 75.68334961 46.03352539 75.68334961 50.11352539 C75.35334961 50.11352539 75.02334961 50.11352539 74.68334961 50.11352539 C74.68334961 46.15352539 74.68334961 42.19352539 74.68334961 38.11352539 C70.06334961 38.11352539 65.44334961 38.11352539 60.68334961 38.11352539 C60.35334961 41.74352539 60.02334961 45.37352539 59.68334961 49.11352539 C56.71334961 49.11352539 53.74334961 49.11352539 50.68334961 49.11352539 C50.45548503 46.80232747 50.22762044 44.49112956 49.99975586 42.17993164 C49.89404146 40.12690514 49.89404146 40.12690514 48.68334961 39.11352539 C44.35844108 38.64829619 40.02399424 38.40852066 35.68334961 38.11352539 C35.35334961 33.82352539 35.02334961 29.53352539 34.68334961 25.11352539 C30.39334961 25.11352539 26.10334961 25.11352539 21.68334961 25.11352539 C21.68334961 29.40352539 21.68334961 33.69352539 21.68334961 38.11352539 C21.35334961 38.11352539 21.02334961 38.11352539 20.68334961 38.11352539 C20.68334961 34.15352539 20.68334961 30.19352539 20.68334961 26.11352539 C17.38334961 26.11352539 14.08334961 26.11352539 10.68334961 26.11352539 C10.68334961 21.82352539 10.68334961 17.53352539 10.68334961 13.11352539 C13.65334961 13.11352539 16.62334961 13.11352539 19.68334961 13.11352539 C19.68334961 9.48352539 19.68334961 5.85352539 19.68334961 2.11352539 C12.42334961 2.11352539 5.16334961 2.11352539 -2.31665039 2.11352539 C-2.31665039 26.86352539 -2.31665039 51.61352539 -2.31665039 77.11352539 C1.97334961 77.11352539 6.26334961 77.11352539 10.68334961 77.11352539 C10.68334961 77.44352539 10.68334961 77.77352539 10.68334961 78.11352539 C6.06334961 78.11352539 1.44334961 78.11352539 -3.31665039 78.11352539 C-3.33977449 68.09124776 -3.35756582 58.06897642 -3.36846256 48.04667759 C-3.37369125 43.39341353 -3.38078862 38.74016765 -3.39208984 34.08691406 C-3.40291925 29.60007993 -3.40892734 25.11326335 -3.41152763 20.62641716 C-3.41338179 18.91072246 -3.41700221 17.19502878 -3.42238045 15.47934151 C-3.4295916 13.08467626 -3.4306413 10.69008443 -3.43017578 8.29541016 C-3.43377106 7.57899857 -3.43736633 6.86258698 -3.44107056 6.12446594 C-3.42845916 0.16800859 -3.42845916 0.16800859 0 0 Z " fill="#E9B4B6" transform="translate(21.316650390625,59.886474609375)"/>
<path d="M0 0 C7.26 0 14.52 0 22 0 C22 3.63 22 7.26 22 11 C19.03 11 16.06 11 13 11 C13 15.29 13 19.58 13 24 C16.3 24 19.6 24 23 24 C23.81998544 32.31005743 24.15976997 40.52648252 24.125 48.875 C24.12306641 50.00599121 24.12113281 51.13698242 24.11914062 52.30224609 C24.07811251 60.24004643 23.80451955 68.09846872 23 76 C15.24249406 76.1576017 7.78724985 75.59901922 0 75 C0 50.25 0 25.5 0 0 Z " fill="#FCF8F7" transform="translate(19,62)"/>
<path d="M0 0 C26.07 0 52.14 0 79 0 C79 4.62 79 9.24 79 14 C87.58 14 96.16 14 105 14 C105 18.62 105 23.24 105 28 C100.05 28 95.1 28 90 28 C90 31.96 90 35.92 90 40 C83.03996034 40.02464201 76.07994584 40.04283222 69.11987305 40.05493164 C66.75007688 40.05997341 64.38028385 40.06680665 62.01049805 40.07543945 C58.61245961 40.0875119 55.21446215 40.09322971 51.81640625 40.09765625 C50.74975235 40.10281754 49.68309845 40.10797882 48.5841217 40.11329651 C47.60318039 40.11337204 46.62223907 40.11344757 45.61157227 40.11352539 C44.30918358 40.11685631 44.30918358 40.11685631 42.98048401 40.12025452 C41 40 41 40 40 39 C39.85689713 35.3308423 39.95778338 31.67284559 40 28 C44.62 28 49.24 28 54 28 C53.979375 25.875625 53.95875 23.75125 53.9375 21.5625 C53.91626217 19.37500389 53.92741054 17.18639453 54 15 C55 14 55 14 57.22485352 13.88647461 C58.18319092 13.89171143 59.14152832 13.89694824 60.12890625 13.90234375 C61.68061523 13.90717773 61.68061523 13.90717773 63.26367188 13.91210938 C64.35228516 13.92048828 65.44089844 13.92886719 66.5625 13.9375 C68.2012207 13.94426758 68.2012207 13.94426758 69.87304688 13.95117188 C72.58205432 13.9630016 75.2910338 13.98093769 78 14 C78 9.71 78 5.42 78 1 C56.55 1 35.1 1 13 1 C13 4.96 13 8.92 13 13 C9.37 13.33 5.74 13.66 2 14 C1.67 22.58 1.34 31.16 1 40 C0.67 40 0.34 40 0 40 C0 26.8 0 13.6 0 0 Z " fill="#395CA3" transform="translate(17,6)"/>
<path d="M0 0 C0.95310059 0.01047363 1.90620117 0.02094727 2.88818359 0.03173828 C4.43505859 0.04140625 4.43505859 0.04140625 6.01318359 0.05126953 C7.63353516 0.07640625 7.63353516 0.07640625 9.28662109 0.10205078 C10.37458984 0.11107422 11.46255859 0.12009766 12.58349609 0.12939453 C15.27629758 0.1530156 17.96898644 0.18888746 20.66162109 0.22705078 C20.66162109 5.50705078 20.66162109 10.78705078 20.66162109 16.22705078 C13.07162109 16.22705078 5.48162109 16.22705078 -2.33837891 16.22705078 C-1.84337891 20.68205078 -1.84337891 20.68205078 -1.33837891 25.22705078 C1.63162109 25.55705078 4.60162109 25.88705078 7.66162109 26.22705078 C7.66162109 30.84705078 7.66162109 35.46705078 7.66162109 40.22705078 C-1.61572266 40.32470703 -1.61572266 40.32470703 -4.33837891 40.22705078 C-4.66837891 39.89705078 -4.99837891 39.56705078 -5.33837891 39.22705078 C-5.33837891 35.26705078 -5.33837891 31.30705078 -5.33837891 27.22705078 C-22.16837891 26.89705078 -38.99837891 26.56705078 -56.33837891 26.22705078 C-56.33837891 22.59705078 -56.33837891 18.96705078 -56.33837891 15.22705078 C-39.17837891 14.89705078 -22.01837891 14.56705078 -4.33837891 14.22705078 C-4.33837891 10.26705078 -4.33837891 6.30705078 -4.33837891 2.22705078 C-2.33837891 0.22705078 -2.33837891 0.22705078 0 0 Z " fill="#B16D68" transform="translate(139.33837890625,58.77294921875)"/>
<path d="M0 0 C9.27734375 -0.09765625 9.27734375 -0.09765625 12 0 C13 1 13 1 13.09765625 3.50390625 C13.06510417 6.3359375 13.03255208 9.16796875 13 12 C17.29 12 21.58 12 26 12 C26 15.96 26 19.92 26 24 C29.96 24.33 33.92 24.66 38 25 C38 33.91 38 42.82 38 52 C28 52 28 52 26 51 C26 47.04 26 43.08 26 39 C21.71 39 17.42 39 13 39 C13 42.96 13 46.92 13 51 C8.71 51 4.42 51 0 51 C-0.09765625 41.72265625 -0.09765625 41.72265625 0 39 C0.495 38.505 0.495 38.505 1 38 C4.63 38 8.26 38 12 38 C12 29.75 12 21.5 12 13 C8.04 13 4.08 13 0 13 C0 8.71 0 4.42 0 0 Z " fill="#D75A58" transform="translate(44,86)"/>
<path d="M0 0 C0.33 0 0.66 0 1 0 C1 4.62 1 9.24 1 14 C9.91 14 18.82 14 28 14 C29.20272819 16.40545638 29.10071472 17.94996953 29.0625 20.625 C29.05347656 21.44226563 29.04445312 22.25953125 29.03515625 23.1015625 C29.02355469 23.72804687 29.01195312 24.35453125 29 25 C29.63164063 24.98839844 30.26328125 24.97679687 30.9140625 24.96484375 C38.64964919 24.8868191 46.29234406 25.36988506 54 26 C54 22.04 54 18.08 54 14 C54.33 14 54.66 14 55 14 C55 17.96 55 21.92 55 26 C58.63 26 62.26 26 66 26 C66 30.29 66 34.58 66 39 C57.38058942 39.83181242 48.90603948 40.12614735 40.25 40.0625 C39.0640625 40.05798828 37.878125 40.05347656 36.65625 40.04882812 C33.77081089 40.03719329 30.88539826 40.01926453 28 40 C28 35.38 28 30.76 28 26 C25.14214844 26.01740234 25.14214844 26.01740234 22.2265625 26.03515625 C19.69270932 26.04454089 17.15885507 26.05364037 14.625 26.0625 C13.37332031 26.07087891 12.12164062 26.07925781 10.83203125 26.08789062 C3.80496092 26.1062861 -3.02302186 25.8471092 -10 25 C-10 21.37 -10 17.74 -10 14 C-6.7 14 -3.4 14 0 14 C0 9.38 0 4.76 0 0 Z " fill="#EEB9B4" transform="translate(42,124)"/>
<path d="M0 0 C3.96 0 7.92 0 12 0 C12.33 3.96 12.66 7.92 13 12 C20.92 12.33 28.84 12.66 37 13 C37 17.29 37 21.58 37 26 C45.58 26 54.16 26 63 26 C63 29.63 63 33.26 63 37 C50.79 37 38.58 37 26 37 C26 32.71 26 28.42 26 24 C13.13 23.505 13.13 23.505 0 23 C0 15.41 0 7.82 0 0 Z " fill="#FBFBFA" transform="translate(19,21)"/>
<path d="M0 0 C13.2 0 26.4 0 40 0 C40 47.85 40 95.7 40 145 C35.38 145 30.76 145 26 145 C26 148.96 26 152.92 26 157 C16.76 157 7.52 157 -2 157 C-2 156.67 -2 156.34 -2 156 C6.58 156 15.16 156 24 156 C24 152.37 24 148.74 24 145 C21.5559375 145.0309375 21.5559375 145.0309375 19.0625 145.0625 C17.37500659 145.08386068 15.68608966 145.07205511 14 145 C13 144 13 144 12.88647461 141.40795898 C12.89171143 140.28204346 12.89694824 139.15612793 12.90234375 137.99609375 C12.90556641 136.78115234 12.90878906 135.56621094 12.91210938 134.31445312 C12.92048828 133.03505859 12.92886719 131.75566406 12.9375 130.4375 C12.94201172 129.15423828 12.94652344 127.87097656 12.95117188 126.54882812 C12.96300445 123.3658658 12.98094056 120.18292726 13 117 C17.29 117 21.58 117 26 117 C26 125.91 26 134.82 26 144 C29.96 144 33.92 144 38 144 C38 97.14 38 50.28 38 2 C25.46 1.67 12.92 1.34 0 1 C0 0.67 0 0.34 0 0 Z " fill="#464342" transform="translate(122,33)"/>
<path d="M0 0 C4.29 0 8.58 0 13 0 C13 0.33 13 0.66 13 1 C9.04 1 5.08 1 1 1 C1 5.29 1 9.58 1 14 C4.96 14 8.92 14 13 14 C13 22.25 13 30.5 13 39 C7.555 39.495 7.555 39.495 2 40 C1.67 43.96 1.34 47.92 1 52 C5.29 52 9.58 52 14 52 C14 48.04 14 44.08 14 40 C18.29 40 22.58 40 27 40 C27 43.96 27 47.92 27 52 C30.96 52.33 34.92 52.66 39 53 C39 56.63 39 60.26 39 64 C35.37 64 31.74 64 28 64 C27.67 60.37 27.34 56.74 27 53 C18.09 53 9.18 53 0 53 C0 35.51 0 18.02 0 0 Z " fill="#E99E9F" transform="translate(43,85)"/>
<path d="M0 0 C11.88 0 23.76 0 36 0 C36 3.96 36 7.92 36 12 C40.95 12 45.9 12 51 12 C51 15.3 51 18.6 51 22 C33.05172414 23.44827586 33.05172414 23.44827586 27 23 C25.26043342 21.26043342 25.62809614 18.8063378 25.4375 16.4375 C25.31181641 14.91962891 25.31181641 14.91962891 25.18359375 13.37109375 C25.12300781 12.58863281 25.06242187 11.80617188 25 11 C24.31373535 10.94465088 23.6274707 10.88930176 22.92041016 10.83227539 C19.82157565 10.57994697 16.72330016 10.32130351 13.625 10.0625 C12.54476562 9.97548828 11.46453125 9.88847656 10.3515625 9.79882812 C9.3203125 9.71181641 8.2890625 9.62480469 7.2265625 9.53515625 C6.27346191 9.456604 5.32036133 9.37805176 4.33837891 9.29711914 C2 9 2 9 0 8 C0 5.36 0 2.72 0 0 Z " fill="#FCF6F5" transform="translate(45,75)"/>
<path d="M0 0 C5.25105442 -0.02464928 10.50207545 -0.04283568 15.75317383 -0.05493164 C17.54094021 -0.05997218 19.32870245 -0.06680454 21.11645508 -0.07543945 C23.68051168 -0.0875173 26.24451397 -0.09323094 28.80859375 -0.09765625 C29.6127623 -0.10281754 30.41693085 -0.10797882 31.24546814 -0.11329651 C33.16401715 -0.11349215 35.08245368 -0.06201983 37 0 C38 1 38 1 38.11352539 3.31665039 C38.10828857 4.31688232 38.10305176 5.31711426 38.09765625 6.34765625 C38.09443359 7.42724609 38.09121094 8.50683594 38.08789062 9.61914062 C38.07532227 11.32360352 38.07532227 11.32360352 38.0625 13.0625 C38.05798828 14.20267578 38.05347656 15.34285156 38.04882812 16.51757812 C38.0369976 19.34507418 38.0190615 22.17254345 38 25 C33.71 25 29.42 25 25 25 C24.505 18.565 24.505 18.565 24 12 C16.08 11.67 8.16 11.34 0 11 C0 7.37 0 3.74 0 0 Z " fill="#FCFDFD" transform="translate(32,8)"/>
<path d="M0 0 C16.83 0 33.66 0 51 0 C51 3.63 51 7.26 51 11 C34.17 11 17.34 11 0 11 C0 7.37 0 3.74 0 0 Z " fill="#D2423A" transform="translate(83,74)"/>
<path d="M0 0 C26.07 0 52.14 0 79 0 C79 4.62 79 9.24 79 14 C87.58 14 96.16 14 105 14 C105 18.29 105 22.58 105 27 C96.50390625 26.4140625 96.50390625 26.4140625 94 26 C93.505 25.01 93.505 25.01 93 24 C95.64 24 98.28 24 101 24 C101 22.02 101 20.04 101 18 C86.48 18 71.96 18 57 18 C57 20.97 57 23.94 57 27 C55.02 27.99 55.02 27.99 53 29 C53.14026283 26.68715544 53.28735558 24.37472409 53.4375 22.0625 C53.51871094 20.77472656 53.59992188 19.48695312 53.68359375 18.16015625 C54 15 54 15 55 14 C56.70772358 13.91286169 58.41898649 13.89299993 60.12890625 13.90234375 C61.68061523 13.90717773 61.68061523 13.90717773 63.26367188 13.91210938 C64.35228516 13.92048828 65.44089844 13.92886719 66.5625 13.9375 C68.2012207 13.94426758 68.2012207 13.94426758 69.87304688 13.95117188 C72.58205432 13.9630016 75.2910338 13.98093769 78 14 C78 9.71 78 5.42 78 1 C56.55 1 35.1 1 13 1 C13 4.96 13 8.92 13 13 C9.37 13.33 5.74 13.66 2 14 C1.67 22.58 1.34 31.16 1 40 C0.67 40 0.34 40 0 40 C0 26.8 0 13.6 0 0 Z " fill="#526281" transform="translate(17,6)"/>
<path d="M0 0 C8.25 0.33 16.5 0.66 25 1 C25 4.96 25 8.92 25 13 C17.08 13 9.16 13 1 13 C1 47.65 1 82.3 1 118 C0.34 118 -0.32 118 -1 118 C-1.02324166 104.53422316 -1.04097513 91.06845114 -1.05181217 77.60265827 C-1.05701522 71.34894918 -1.06406573 65.09525389 -1.07543945 58.84155273 C-1.08636034 52.79853875 -1.09229623 46.75553798 -1.09487724 40.71251488 C-1.09671498 38.41502868 -1.10030342 36.11754316 -1.10573006 33.82006264 C-1.13141312 22.48876926 -1.1180873 11.28533095 0 0 Z " fill="#873E38" transform="translate(17,46)"/>
<path d="M0 0 C5.39346988 -0.02464849 10.78690725 -0.04283531 16.18041992 -0.05493164 C18.01668875 -0.05997231 19.85295354 -0.06680477 21.68920898 -0.07543945 C24.32276401 -0.08751672 26.95626616 -0.09323081 29.58984375 -0.09765625 C30.41588608 -0.10281754 31.24192841 -0.10797882 32.09300232 -0.11329651 C34.06236368 -0.11349205 36.03161614 -0.06204152 38 0 C41.07318149 3.07318149 39 8.65386506 39 13 C26.13 13 13.26 13 0 13 C0 8.71 0 4.42 0 0 Z " fill="#F7F2F1" transform="translate(83,60)"/>
<path d="M0 0 C5.10863896 -0.0246501 10.21724359 -0.04283607 15.32592773 -0.05493164 C17.06519168 -0.05997204 18.80445136 -0.0668043 20.54370117 -0.07543945 C23.03825937 -0.08751792 25.53276173 -0.09323108 28.02734375 -0.09765625 C28.80963852 -0.10281754 29.59193329 -0.10797882 30.39793396 -0.11329651 C32.26567114 -0.11349226 34.13329204 -0.06199694 36 0 C37 1 37 1 37.1328125 3.46875 C37.13023438 4.4690625 37.12765625 5.469375 37.125 6.5 C37.12886719 8.00046875 37.12886719 8.00046875 37.1328125 9.53125 C37 12 37 12 36 13 C34.14825294 13.15786308 32.2909089 13.25107356 30.43359375 13.31640625 C29.30888672 13.35830078 28.18417969 13.40019531 27.02539062 13.44335938 C25.84138672 13.48267578 24.65738281 13.52199219 23.4375 13.5625 C22.24962891 13.60568359 21.06175781 13.64886719 19.83789062 13.69335938 C16.89205216 13.79983546 13.9461257 13.90184841 11 14 C11 13.01 11 12.02 11 11 C7.37 11 3.74 11 0 11 C0 7.37 0 3.74 0 0 Z " fill="#CF4339" transform="translate(33,151)"/>
<path d="M0 0 C12.21 0 24.42 0 37 0 C38 2 38 2 38 12 C25.46 12 12.92 12 0 12 C0 8.04 0 4.08 0 0 Z " fill="#D14439" transform="translate(44,61)"/>
<path d="M0 0 C0.33 0 0.66 0 1 0 C1 4.62 1 9.24 1 14 C9.91 14 18.82 14 28 14 C28 17.63 28 21.26 28 25 C15.46 25 2.92 25 -10 25 C-10 21.37 -10 17.74 -10 14 C-6.7 14 -3.4 14 0 14 C0 9.38 0 4.76 0 0 Z " fill="#EFC2C3" transform="translate(42,124)"/>
<path d="M0 0 C11.55 0 23.1 0 35 0 C35 3.96 35 7.92 35 12 C30.17619198 12.0246519 25.35242033 12.04283693 20.52856445 12.05493164 C18.88630536 12.05997174 17.24405077 12.06680378 15.60180664 12.07543945 C13.24624521 12.08751926 10.89074291 12.09323139 8.53515625 12.09765625 C7.79660904 12.10281754 7.05806183 12.10797882 6.2971344 12.11329651 C4.53101912 12.1134925 2.76502854 12.06194719 1 12 C0.67 11.67 0.34 11.34 0 11 C0 7.37 0 3.74 0 0 Z " fill="#D24137" transform="translate(72,165)"/>
<path d="M0 0 C12.54 0 25.08 0 38 0 C38 3.3 38 6.6 38 10 C37 11 37 11 33.48999023 11.11352539 C31.92951578 11.11336626 30.36903607 11.10767142 28.80859375 11.09765625 C27.98875504 11.0962413 27.16891632 11.09482635 26.32423401 11.09336853 C23.69528618 11.08775289 21.06642227 11.07519779 18.4375 11.0625 C16.65950643 11.05748701 14.88151154 11.05292376 13.10351562 11.04882812 C8.73564455 11.03777839 4.36783652 11.02050331 0 11 C0 7.37 0 3.74 0 0 Z " fill="#F9FAFB" transform="translate(109,35)"/>
<path d="M0 0 C4.62 0 9.24 0 14 0 C14 3.63 14 7.26 14 11 C26.54 11.33 39.08 11.66 52 12 C51.67 12.66 51.34 13.32 51 14 C32.685 13.505 32.685 13.505 14 13 C14 16.96 14 20.92 14 25 C13.67 25.33 13.34 25.66 13 26 C8.71 26 4.42 26 0 26 C0 17.42 0 8.84 0 0 Z " fill="#B67670" transform="translate(18,138)"/>
<path d="M0 0 C4.62 0 9.24 0 14 0 C14 9.24 14 18.48 14 28 C11.37670316 29.31164842 9.36301375 29.13262846 6.4375 29.125 C5.44621094 29.12757813 4.45492187 29.13015625 3.43359375 29.1328125 C1 29 1 29 0 28 C-0.08767112 25.92737924 -0.10695873 23.85179706 -0.09765625 21.77734375 C-0.09443359 20.51728516 -0.09121094 19.25722656 -0.08789062 17.95898438 C-0.07953403 16.61848891 -0.07106907 15.27799412 -0.0625 13.9375 C-0.0574866 12.59310058 -0.05292342 11.2486994 -0.04882812 9.90429688 C-0.03699497 6.60284567 -0.01905886 3.3014174 0 0 Z " fill="#030404" transform="translate(134,110)"/>
<path d="M0 0 C11.88 0 23.76 0 36 0 C36 3.3 36 6.6 36 10 C24.12 10 12.24 10 0 10 C0 6.7 0 3.4 0 0 Z " fill="#8E908F" transform="translate(71,179)"/>
<path d="M0 0 C0 9.24 0 18.48 0 28 C-4.29 27.67 -8.58 27.34 -13 27 C-13 18.42 -13 9.84 -13 1 C-1 0 -1 0 0 0 Z " fill="#E9A4A7" transform="translate(96,110)"/>
<path d="M0 0 C8.25 0 16.5 0 25 0 C25 4.29 25 8.58 25 13 C17.41 13.33 9.82 13.66 2 14 C1.67 18.29 1.34 22.58 1 27 C0.67 27 0.34 27 0 27 C0 18.09 0 9.18 0 0 Z " fill="#8F9293" transform="translate(70,7)"/>
<path d="M0 0 C8.58 0 17.16 0 26 0 C26 3.63 26 7.26 26 11 C25 12 25 12 22.59155273 12.11352539 C21.54942627 12.10828857 20.5072998 12.10305176 19.43359375 12.09765625 C18.30888672 12.09443359 17.18417969 12.09121094 16.02539062 12.08789062 C14.84138672 12.07951172 13.65738281 12.07113281 12.4375 12.0625 C11.24962891 12.05798828 10.06175781 12.05347656 8.83789062 12.04882812 C5.89190588 12.03699686 2.94594684 12.01906076 0 12 C0 8.04 0 4.08 0 0 Z " fill="#929394" transform="translate(44,165)"/>
<path d="M0 0 C4.29 0 8.58 0 13 0 C13 0.33 13 0.66 13 1 C9.04 1 5.08 1 1 1 C1.33 5.29 1.66 9.58 2 14 C5.3 14.33 8.6 14.66 12 15 C12 22.26 12 29.52 12 37 C7.05 37.495 7.05 37.495 2 38 C1.01 38.495 1.01 38.495 0 39 C0 26.13 0 13.26 0 0 Z " fill="#E8A7AB" transform="translate(43,85)"/>
<path d="M0 0 C7.92 0 15.84 0 24 0 C24 3.96 24 7.92 24 12 C16.08 12 8.16 12 0 12 C0 8.04 0 4.08 0 0 Z " fill="#8F9291" transform="translate(32,21)"/>
<path d="M0 0 C0.9583374 0.00523682 1.9166748 0.01047363 2.90405273 0.01586914 C4.45576172 0.02070312 4.45576172 0.02070312 6.03881836 0.02563477 C7.12743164 0.03401367 8.21604492 0.04239258 9.33764648 0.05102539 C10.97636719 0.05779297 10.97636719 0.05779297 12.64819336 0.06469727 C15.3572008 0.07652699 18.06618028 0.09446308 20.77514648 0.11352539 C20.77514648 4.07352539 20.77514648 8.03352539 20.77514648 12.11352539 C12.85514648 12.11352539 4.93514648 12.11352539 -3.22485352 12.11352539 C-3.22485352 0.1645514 -3.22485352 0.1645514 0 0 Z " fill="#CD4138" transform="translate(139.224853515625,60.886474609375)"/>
<path d="M0 0 C8.04886676 -0.12195253 15.97819263 0.35270719 24 1 C24 4.63 24 8.26 24 12 C16.08 12 8.16 12 0 12 C0 8.04 0 4.08 0 0 Z " fill="#F8EDEA" transform="translate(72,150)"/>
<path d="M0 0 C4.95 0 9.9 0 15 0 C15.33 3.63 15.66 7.26 16 11 C19.3 11.33 22.6 11.66 26 12 C25.67 15.63 25.34 19.26 25 23 C22.03 23 19.06 23 16 23 C15.77213542 20.68880208 15.54427083 18.37760417 15.31640625 16.06640625 C15.21069185 14.01337975 15.21069185 14.01337975 14 13 C11.81707226 12.76518307 9.62796826 12.58636677 7.4375 12.4375 C6.23996094 12.35371094 5.04242188 12.26992187 3.80859375 12.18359375 C2.88175781 12.12300781 1.95492187 12.06242187 1 12 C0.67 8.04 0.34 4.08 0 0 Z " fill="#EBADAF" transform="translate(56,86)"/>
<path d="M0 0 C12.87 0.495 12.87 0.495 26 1 C26 5.62 26 10.24 26 15 C38.87 15 51.74 15 65 15 C65 19.29 65 23.58 65 28 C77.87 28 90.74 28 104 28 C104 28.33 104 28.66 104 29 C91.13 29 78.26 29 65 29 C65 32.63 65 36.26 65 40 C77.87 40 90.74 40 104 40 C104 40.33 104 40.66 104 41 C90.8 41 77.6 41 64 41 C64 37.04 64 33.08 64 29 C51.13 29 38.26 29 25 29 C25 24.38 25 19.76 25 15 C12.625 15.495 12.625 15.495 0 16 C0 15.34 0 14.68 0 14 C7.92 14 15.84 14 24 14 C24 10.04 24 6.08 24 2 C16.08 2 8.16 2 0 2 C0 1.34 0 0.68 0 0 Z M26 16 C26 19.96 26 23.92 26 28 C38.54 28 51.08 28 64 28 C64.74535599 19.11803399 64.74535599 19.11803399 63 16 C50.79 16 38.58 16 26 16 Z " fill="#E08A80" transform="translate(18,45)"/>
<path d="M0 0 C3.3 0 6.6 0 10 0 C10 8.58 10 17.16 10 26 C6.7 26 3.4 26 0 26 C0 17.42 0 8.84 0 0 Z " fill="#050606" transform="translate(136,151)"/>
<path d="M0 0 C7.92 0 15.84 0 24 0 C24 4.29 24 8.58 24 13 C21.04335481 14.4783226 18.25770263 14.06032783 15 14 C15 17.3 15 20.6 15 24 C17.97 24 20.94 24 24 24 C23.979375 22.906875 23.95875 21.81375 23.9375 20.6875 C24 17 24 17 25 14 C25.99 14.33 26.98 14.66 28 15 C27.67 17.31 27.34 19.62 27 22 C35.25 22.66 43.5 23.32 52 24 C52 24.33 52 24.66 52 25 C42.93058319 25.12237594 34.03555739 24.80316066 25 24 C25 28.29 25 32.58 25 37 C24.67 37 24.34 37 24 37 C24 33.04 24 29.08 24 25 C20.7 25 17.4 25 14 25 C14 20.71 14 16.42 14 12 C16.97 12 19.94 12 23 12 C23 8.37 23 4.74 23 1 C15.74 1 8.48 1 1 1 C1 25.75 1 50.5 1 76 C5.29 76 9.58 76 14 76 C14 76.33 14 76.66 14 77 C9.38 77 4.76 77 0 77 C0 51.59 0 26.18 0 0 Z " fill="#E6D1CE" transform="translate(18,61)"/>
<path d="M0 0 C0.33 0 0.66 0 1 0 C1 3.63 1 7.26 1 11 C4.63 11 8.26 11 12 11 C12 15.95 12 20.9 12 26 C24.375 25.505 24.375 25.505 37 25 C37.33 21.37 37.66 17.74 38 14 C38.66 14 39.32 14 40 14 C40.495 19.445 40.495 19.445 41 25 C52.22 25.33 63.44 25.66 75 26 C75 26.33 75 26.66 75 27 C57.675 27.495 57.675 27.495 40 28 C39.67 31.3 39.34 34.6 39 38 C50.88 38 62.76 38 75 38 C75 38.33 75 38.66 75 39 C62.79 39 50.58 39 38 39 C38 35.04 38 31.08 38 27 C28.76 27 19.52 27 10 27 C9.67 23.04 9.34 19.08 9 15 C-2.385 14.505 -2.385 14.505 -14 14 C-14 13.67 -14 13.34 -14 13 C-7.565 12.505 -7.565 12.505 -1 12 C-0.67 8.04 -0.34 4.08 0 0 Z " fill="#845E5A" transform="translate(32,151)"/>
<path d="M0 0 C4.29 0 8.58 0 13 0 C13 29.37 13 58.74 13 89 C12.67 89 12.34 89 12 89 C11.67 59.96 11.34 30.92 11 1 C7.7 1 4.4 1 1 1 C1 4.96 1 8.92 1 13 C-2.3 13.33 -5.6 13.66 -9 14 C-9.33 16.64 -9.66 19.28 -10 22 C-7.69 22.33 -5.38 22.66 -3 23 C-3 23.33 -3 23.66 -3 24 C-4.98 24.33 -6.96 24.66 -9 25 C-9.02505615 25.60996826 -9.0501123 26.21993652 -9.07592773 26.84838867 C-9.1924058 29.62827898 -9.31489632 32.4078734 -9.4375 35.1875 C-9.47681641 36.14720703 -9.51613281 37.10691406 -9.55664062 38.09570312 C-9.59853516 39.02705078 -9.64042969 39.95839844 -9.68359375 40.91796875 C-9.72025146 41.77156982 -9.75690918 42.6251709 -9.79467773 43.50463867 C-10.00531094 46.06454594 -10.44841536 48.49333243 -11 51 C-11.33 51 -11.66 51 -12 51 C-12.02945039 46.58334775 -12.04694816 42.16672133 -12.0625 37.75 C-12.07087891 36.51507813 -12.07925781 35.28015625 -12.08789062 34.0078125 C-12.10824647 26.27258998 -11.75215958 18.69927133 -11 11 C-7.37 11 -3.74 11 0 11 C0 7.37 0 3.74 0 0 Z " fill="#F2EBEC" transform="translate(108,87)"/>
<path d="M0 0 C0 2.97 0 5.94 0 9 C-8.25 9 -16.5 9 -25 9 C-24.34 6.69 -23.68 4.38 -23 2 C-15.27111181 0.04596958 -7.94957992 -0.22428282 0 0 Z " fill="#FAF2EF" transform="translate(69,139)"/>
<path d="M0 0 C7.92 0 15.84 0 24 0 C24 4.62 24 9.24 24 14 C36.87 14 49.74 14 63 14 C63 17.96 63 21.92 63 26 C67.62 26 72.24 26 77 26 C77 26.33 77 26.66 77 27 C72.05 27 67.1 27 62 27 C62 23.04 62 19.08 62 15 C49.46 15 36.92 15 24 15 C23.67 18.3 23.34 21.6 23 25 C20.03 25 17.06 25 14 25 C14 21.7 14 18.4 14 15 C18.455 14.505 18.455 14.505 23 14 C23 9.71 23 5.42 23 1 C15.41 1 7.82 1 0 1 C0 0.67 0 0.34 0 0 Z " fill="#F4C5BC" transform="translate(19,60)"/>
<path d="M0 0 C4.62 0 9.24 0 14 0 C14 9.24 14 18.48 14 28 C11.37670316 29.31164842 9.36301375 29.13262846 6.4375 29.125 C5.44621094 29.12757813 4.45492187 29.13015625 3.43359375 29.1328125 C1 29 1 29 0 28 C-0.08767112 25.92737924 -0.10695873 23.85179706 -0.09765625 21.77734375 C-0.09443359 20.51728516 -0.09121094 19.25722656 -0.08789062 17.95898438 C-0.07953403 16.61848891 -0.07106907 15.27799412 -0.0625 13.9375 C-0.0574866 12.59310058 -0.05292342 11.2486994 -0.04882812 9.90429688 C-0.03699497 6.60284567 -0.01905886 3.3014174 0 0 Z M2 1 C2.33 9.25 2.66 17.5 3 26 C5.97 26 8.94 26 12 26 C12 17.75 12 9.5 12 1 C8.7 1 5.4 1 2 1 Z " fill="#434545" transform="translate(134,110)"/>
<path d="M0 0 C4.29 0 8.58 0 13 0 C13 8.91 13 17.82 13 27 C16.96 27 20.92 27 25 27 C25 27.33 25 27.66 25 28 C21.04 28 17.08 28 13 28 C13 31.96 13 35.92 13 40 C3.76 40 -5.48 40 -15 40 C-15 39.67 -15 39.34 -15 39 C-6.42 39 2.16 39 11 39 C11 35.37 11 31.74 11 28 C8.5559375 28.0309375 8.5559375 28.0309375 6.0625 28.0625 C4.37500659 28.08386068 2.68608966 28.07205511 1 28 C0 27 0 27 -0.11352539 24.40795898 C-0.10828857 23.28204346 -0.10305176 22.15612793 -0.09765625 20.99609375 C-0.09443359 19.78115234 -0.09121094 18.56621094 -0.08789062 17.31445312 C-0.07951172 16.03505859 -0.07113281 14.75566406 -0.0625 13.4375 C-0.05798828 12.15423828 -0.05347656 10.87097656 -0.04882812 9.54882812 C-0.03699555 6.3658658 -0.01905944 3.18292726 0 0 Z M1 1 C1 9.58 1 18.16 1 27 C4.3 27 7.6 27 11 27 C11 18.42 11 9.84 11 1 C7.7 1 4.4 1 1 1 Z " fill="#4A4B4B" transform="translate(135,150)"/>
<path d="M0 0 C3.96 0 7.92 0 12 0 C12 3.96 12 7.92 12 12 C6.06 12.495 6.06 12.495 0 13 C0 8.71 0 4.42 0 0 Z " fill="#8F9191" transform="translate(18,7)"/>
<path d="M0 0 C0.33 0 0.66 0 1 0 C1.02312228 11.58688402 1.0409145 23.17376259 1.05181217 34.76066494 C1.05704125 40.14033762 1.06413935 45.51999458 1.07543945 50.8996582 C1.08626745 56.08674843 1.09227665 61.27382349 1.09487724 66.46092415 C1.09673165 68.4445628 1.10035256 70.42820058 1.10573006 72.41183281 C1.11293932 75.18009136 1.11399099 77.94828638 1.11352539 80.71655273 C1.11712067 81.54517319 1.12071594 82.37379364 1.12442017 83.2275238 C1.11405216 88.88594784 1.11405216 88.88594784 0 90 C-4.33530918 90.14393457 -8.66157731 90.04212061 -13 90 C-13 85.05 -13 80.1 -13 75 C-12.34 75.33 -11.68 75.66 -11 76 C-11 79.63 -11 83.26 -11 87 C-7.37 87.33 -3.74 87.66 0 88 C0 58.96 0 29.92 0 0 Z " fill="#CCCECE" transform="translate(121,88)"/>
<path d="M0 0 C3.96 0 7.92 0 12 0 C12 3.96 12 7.92 12 12 C8.04 12 4.08 12 0 12 C0 8.04 0 4.08 0 0 Z " fill="#D53F35" transform="translate(58,110)"/>
<path d="M0 0 C5.25105442 -0.02464928 10.50207545 -0.04283568 15.75317383 -0.05493164 C17.54094021 -0.05997218 19.32870245 -0.06680454 21.11645508 -0.07543945 C23.68051168 -0.0875173 26.24451397 -0.09323094 28.80859375 -0.09765625 C29.6127623 -0.10281754 30.41693085 -0.10797882 31.24546814 -0.11329651 C33.16401715 -0.11349215 35.08245368 -0.06201983 37 0 C38 1 38 1 38.11352539 3.31665039 C38.10828857 4.31688232 38.10305176 5.31711426 38.09765625 6.34765625 C38.09443359 7.42724609 38.09121094 8.50683594 38.08789062 9.61914062 C38.07532227 11.32360352 38.07532227 11.32360352 38.0625 13.0625 C38.05798828 14.20267578 38.05347656 15.34285156 38.04882812 16.51757812 C38.0369976 19.34507418 38.0190615 22.17254345 38 25 C33.71 25 29.42 25 25 25 C24.505 18.565 24.505 18.565 24 12 C16.08 11.67 8.16 11.34 0 11 C0 7.37 0 3.74 0 0 Z M1 1 C1 3.97 1 6.94 1 10 C9.25 10 17.5 10 26 10 C26.1953125 13.35286458 26.390625 16.70572917 26.5859375 20.05859375 C26.72257812 21.02925781 26.85921875 21.99992187 27 23 C29.81989159 24.59628479 29.81989159 24.59628479 37 24 C37 16.41 37 8.82 37 1 C25.12 1 13.24 1 1 1 Z " fill="#E6E9ED" transform="translate(32,8)"/>
<path d="M0 0 C4.29 0.33 8.58 0.66 13 1 C13.33 4.63 13.66 8.26 14 12 C9.71 12 5.42 12 1 12 C0.67 8.04 0.34 4.08 0 0 Z " fill="#E6A0A2" transform="translate(56,86)"/>
<path d="M0 0 C3.96 0 7.92 0 12 0 C12 3.63 12 7.26 12 11 C8.04 11 4.08 11 0 11 C0 7.37 0 3.74 0 0 Z " fill="#978E8C" transform="translate(19,151)"/>
<path d="M0 0 C3.96 0 7.92 0 12 0 C12 3.63 12 7.26 12 11 C8.04 11 4.08 11 0 11 C0 7.37 0 3.74 0 0 Z " fill="#D75D5A" transform="translate(83,99)"/>
<path d="M0 0 C3.96 0 7.92 0 12 0 C12 3.63 12 7.26 12 11 C8.04 11 4.08 11 0 11 C0 7.37 0 3.74 0 0 Z " fill="#D75956" transform="translate(58,99)"/>
<path d="M0 0 C3.63 0 7.26 0 11 0 C11 3.96 11 7.92 11 12 C7.37 12 3.74 12 0 12 C0 8.04 0 4.08 0 0 Z " fill="#0C0D0D" transform="translate(136,86)"/>
<path d="M0 0 C4.29 0.33 8.58 0.66 13 1 C13 4.3 13 7.6 13 11 C8.71 11 4.42 11 0 11 C0 7.37 0 3.74 0 0 Z " fill="#C23F37" transform="translate(18,138)"/>
<path d="M0 0 C12.54 0 25.08 0 38 0 C38 3.3 38 6.6 38 10 C37 11 37 11 33.48999023 11.11352539 C31.92951578 11.11336626 30.36903607 11.10767142 28.80859375 11.09765625 C27.98875504 11.0962413 27.16891632 11.09482635 26.32423401 11.09336853 C23.69528618 11.08775289 21.06642227 11.07519779 18.4375 11.0625 C16.65950643 11.05748701 14.88151154 11.05292376 13.10351562 11.04882812 C8.73564455 11.03777839 4.36783652 11.02050331 0 11 C0 7.37 0 3.74 0 0 Z M1 2 C0.95745644 3.99954746 0.95919217 6.00041636 1 8 C3.00503509 10.00503509 7.00025444 9.25588663 9.75390625 9.31640625 C10.52935287 9.33718735 11.3047995 9.35796844 12.10374451 9.37937927 C14.58990308 9.44495802 17.07617045 9.50379799 19.5625 9.5625 C21.24415204 9.60567733 22.92579294 9.64929136 24.60742188 9.69335938 C28.73816871 9.80064779 32.86902536 9.90189132 37 10 C37 7.03 37 4.06 37 1 C32.19450253 0.97531553 27.38904182 0.95714745 22.58349609 0.94506836 C20.94807289 0.94003379 19.3126542 0.93320573 17.67724609 0.92456055 C15.32909025 0.91245665 12.98099381 0.906763 10.6328125 0.90234375 C9.89942657 0.89718246 9.16604065 0.89202118 8.41043091 0.88670349 C4.57877344 0.816844 4.57877344 0.816844 1 2 Z " fill="#DDE0E3" transform="translate(109,35)"/>
<path d="M0 0 C1.65322266 0.01740234 1.65322266 0.01740234 3.33984375 0.03515625 C4.44457031 0.04417969 5.54929688 0.05320313 6.6875 0.0625 C7.54214844 0.07410156 8.39679688 0.08570313 9.27734375 0.09765625 C9.27734375 0.75765625 9.27734375 1.41765625 9.27734375 2.09765625 C5.31734375 2.09765625 1.35734375 2.09765625 -2.72265625 2.09765625 C-2.39265625 11.00765625 -2.06265625 19.91765625 -1.72265625 29.09765625 C1.57734375 29.42765625 4.87734375 29.75765625 8.27734375 30.09765625 C8.27734375 33.72765625 8.27734375 37.35765625 8.27734375 41.09765625 C0.35734375 41.09765625 -7.56265625 41.09765625 -15.72265625 41.09765625 C-16.05265625 37.46765625 -16.38265625 33.83765625 -16.72265625 30.09765625 C-15.73265625 29.76765625 -14.74265625 29.43765625 -13.72265625 29.09765625 C-12.72265625 32.09765625 -12.72265625 32.09765625 -12.72265625 40.09765625 C-6.12265625 40.09765625 0.47734375 40.09765625 7.27734375 40.09765625 C7.27734375 37.12765625 7.27734375 34.15765625 7.27734375 31.09765625 C3.64734375 31.09765625 0.01734375 31.09765625 -3.72265625 31.09765625 C-3.74731247 26.84351002 -3.76549524 22.58940127 -3.77758789 18.33520508 C-3.78262726 16.88695552 -3.78945878 15.43871108 -3.7980957 13.99047852 C-3.81017872 11.91291037 -3.81588836 9.83540928 -3.8203125 7.7578125 C-3.82816772 5.88041382 -3.82816772 5.88041382 -3.83618164 3.96508789 C-3.68443071 0.13215318 -3.68443071 0.13215318 0 0 Z " fill="#787A7A" transform="translate(137.72265625,147.90234375)"/>
<path d="M0 0 C3.63 0 7.26 0 11 0 C11 3.63 11 7.26 11 11 C6.71 11 2.42 11 -2 11 C-1.34 10.67 -0.68 10.34 0 10 C0 6.7 0 3.4 0 0 Z " fill="#B63C35" transform="translate(109,179)"/>
<path d="M0 0 C4.62 0 9.24 0 14 0 C14 3.3 14 6.6 14 10 C9.71 9.67 5.42 9.34 1 9 C0.67 6.03 0.34 3.06 0 0 Z " fill="#F3EBE8" transform="translate(82,87)"/>
<path d="M0 0 C6.93 0.495 6.93 0.495 14 1 C14 8.92 14 16.84 14 25 C2.5625 25.4375 2.5625 25.4375 -1.04858398 25.56811523 C-1.98001221 25.60622314 -2.91144043 25.64433105 -3.87109375 25.68359375 C-5.30859985 25.73858032 -5.30859985 25.73858032 -6.77514648 25.79467773 C-8.97138925 25.75834424 -8.97138925 25.75834424 -10 27 C-10.23427778 29.01594582 -10.41336124 31.038474 -10.5625 33.0625 C-10.706875 35.021875 -10.85125 36.98125 -11 39 C-14.96 39 -18.92 39 -23 39 C-23 38.67 -23 38.34 -23 38 C-19.7 38 -16.4 38 -13 38 C-12.95101562 37.00097656 -12.90203125 36.00195312 -12.8515625 34.97265625 C-12.77679688 33.68230469 -12.70203125 32.39195313 -12.625 31.0625 C-12.52058594 29.13083984 -12.52058594 29.13083984 -12.4140625 27.16015625 C-12.27742187 26.11730469 -12.14078125 25.07445312 -12 24 C-9.44276771 22.72138385 -7.63262898 22.88663391 -4.7734375 22.90234375 C-3.7421875 22.90556641 -2.7109375 22.90878906 -1.6484375 22.91210938 C-0.02808594 22.92467773 -0.02808594 22.92467773 1.625 22.9375 C3.25695312 22.94426758 3.25695312 22.94426758 4.921875 22.95117188 C7.61460662 22.9629821 10.30731009 22.98091795 13 23 C13 16.07 13 9.14 13 2 C9.7 2.33 6.4 2.66 3 3 C2.01 2.01 1.02 1.02 0 0 Z " fill="#A3857F" transform="translate(146,34)"/>
<path d="M0 0 C3.96 0 7.92 0 12 0 C12 3.3 12 6.6 12 10 C10.18757948 10.02687279 8.37504767 10.04633715 6.5625 10.0625 C5.55316406 10.07410156 4.54382813 10.08570313 3.50390625 10.09765625 C1 10 1 10 0 9 C-0.14193337 5.99668982 -0.04236378 3.00782866 0 0 Z " fill="#D75A56" transform="translate(83,139)"/>
<path d="M0 0 C4.29 0 8.58 0 13 0 C13 0.66 13 1.32 13 2 C9.37 2 5.74 2 2 2 C2 4.64 2 7.28 2 10 C2.90202148 9.99214478 2.90202148 9.99214478 3.82226562 9.98413086 C19.24472347 9.86901614 34.59701344 10.22407249 50 11 C50 11.33 50 11.66 50 12 C43.03996553 12.02526838 36.0799428 12.04283222 29.11987305 12.05493164 C26.75007688 12.05997341 24.38028385 12.06680665 22.01049805 12.07543945 C18.61245961 12.0875119 15.21446215 12.09322971 11.81640625 12.09765625 C10.74975235 12.10281754 9.68309845 12.10797882 8.5841217 12.11329651 C7.60318039 12.11337204 6.62223907 12.11344757 5.61157227 12.11352539 C4.74331314 12.115746 3.87505402 12.11796661 2.98048401 12.12025452 C1 12 1 12 0 11 C-0.14310287 7.3308423 -0.04221662 3.67284559 0 0 Z " fill="#5A75A9" transform="translate(57,34)"/>
<path d="M0 0 C8.25 0 16.5 0 25 0 C25 4.29 25 8.58 25 13 C29.29 13 33.58 13 38 13 C38 13.33 38 13.66 38 14 C33.71 14 29.42 14 25 14 C25.33 17.63 25.66 21.26 26 25 C33.92 25.33 41.84 25.66 50 26 C50 26.33 50 26.66 50 27 C41.42 27 32.84 27 24 27 C24 22.71 24 18.42 24 14 C16.08 14 8.16 14 0 14 C0 13.67 0 13.34 0 13 C7.92 13 15.84 13 24 13 C24 9.04 24 5.08 24 1 C16.08 1 8.16 1 0 1 C0 0.67 0 0.34 0 0 Z " fill="#AFB8C6" transform="translate(32,20)"/>
<path d="M0 0 C8.58 0 17.16 0 26 0 C26 3.63 26 7.26 26 11 C25 12 25 12 22.59155273 12.11352539 C21.54942627 12.10828857 20.5072998 12.10305176 19.43359375 12.09765625 C18.30888672 12.09443359 17.18417969 12.09121094 16.02539062 12.08789062 C14.84138672 12.07951172 13.65738281 12.07113281 12.4375 12.0625 C11.24962891 12.05798828 10.06175781 12.05347656 8.83789062 12.04882812 C5.89190588 12.03699686 2.94594684 12.01906076 0 12 C0 8.04 0 4.08 0 0 Z M1 2 C1 4.97 1 7.94 1 11 C8.26 11 15.52 11 23 11 C23 8.03 23 5.06 23 2 C15.74 2 8.48 2 1 2 Z " fill="#9C8480" transform="translate(44,165)"/>
<path d="M0 0 C0.33 0 0.66 0 1 0 C1 3.63 1 7.26 1 11 C5.29 11 9.58 11 14 11 C14 11.33 14 11.66 14 12 C10.04 12 6.08 12 2 12 C2 19.92 2 27.84 2 36 C5.96 36.33 9.92 36.66 14 37 C14 37.33 14 37.66 14 38 C9.71 38 5.42 38 1 38 C1 41.96 1 45.92 1 50 C0.67 50 0.34 50 0 50 C0 46.04 0 42.08 0 38 C-3.63 38 -7.26 38 -11 38 C-11 37.67 -11 37.34 -11 37 C-7.37 37 -3.74 37 0 37 C0 28.75 0 20.5 0 12 C-3.96 12 -7.92 12 -12 12 C-12 11.67 -12 11.34 -12 11 C-8.04 11 -4.08 11 0 11 C0 7.37 0 3.74 0 0 Z " fill="#E27978" transform="translate(56,87)"/>
<path d="M0 0 C13.2 0 26.4 0 40 0 C40 8.25 40 16.5 40 25 C39.01 25.495 39.01 25.495 38 26 C38 18.08 38 10.16 38 2 C25.46 1.67 12.92 1.34 0 1 C0 0.67 0 0.34 0 0 Z " fill="#444646" transform="translate(122,33)"/>
<path d="M0 0 C3.96 0 7.92 0 12 0 C12.33 3.96 12.66 7.92 13 12 C20.92 12.33 28.84 12.66 37 13 C37 16.96 37 20.92 37 25 C36.67 25 36.34 25 36 25 C36 21.7 36 18.4 36 15 C34.92516357 15.02356567 34.92516357 15.02356567 33.82861328 15.04760742 C30.59415524 15.10981863 27.35982281 15.14894649 24.125 15.1875 C22.43310547 15.22520508 22.43310547 15.22520508 20.70703125 15.26367188 C19.09248047 15.27817383 19.09248047 15.27817383 17.4453125 15.29296875 C15.95281982 15.31653442 15.95281982 15.31653442 14.43017578 15.34057617 C13.62821777 15.22818604 12.82625977 15.1157959 12 15 C9.71937172 11.57905758 9.78074993 10.31812778 9.875 6.3125 C9.89304687 5.31863281 9.91109375 4.32476562 9.9296875 3.30078125 C9.95289063 2.54152344 9.97609375 1.78226563 10 1 C6.7 1 3.4 1 0 1 C0 0.67 0 0.34 0 0 Z " fill="#E0E3E6" transform="translate(19,21)"/>
<path d="M0 0 C3.96 0 7.92 0 12 0 C12 3.63 12 7.26 12 11 C8.06731133 11.02473868 4.13465287 11.04287835 0.2019043 11.05493164 C-1.79314768 11.06242729 -3.78817786 11.07513345 -5.78320312 11.08789062 C-7.03681641 11.09111328 -8.29042969 11.09433594 -9.58203125 11.09765625 C-10.73936768 11.10289307 -11.8967041 11.10812988 -13.08911133 11.11352539 C-16 11 -16 11 -19 10 C-19 9.34 -19 8.68 -19 8 C-18.01 8 -17.02 8 -16 8 C-15.67 5.69 -15.34 3.38 -15 1 C-10.71 1 -6.42 1 -2 1 C-2 1.33 -2 1.66 -2 2 C-5.3 2.66 -8.6 3.32 -12 4 C-12 5.32 -12 6.64 -12 8 C-12.66 8 -13.32 8 -14 8 C-14 8.66 -14 9.32 -14 10 C-5.75 10 2.5 10 11 10 C11 7.03 11 4.06 11 1 C7.37 1 3.74 1 0 1 C0 0.67 0 0.34 0 0 Z " fill="#F6D9D7" transform="translate(58,138)"/>
<path d="M0 0 C2.97 0 5.94 0 9 0 C10.231394 3.69418201 9.64432764 6.2056261 9 10 C6.03 10 3.06 10 0 10 C0 6.7 0 3.4 0 0 Z " fill="#ECC4C5" transform="translate(33,75)"/>
<path d="M0 0 C0.33 0 0.66 0 1 0 C1 3.63 1 7.26 1 11 C4.63 11 8.26 11 12 11 C12 16.28 12 21.56 12 27 C11.34 27 10.68 27 10 27 C9.67 23.04 9.34 19.08 9 15 C-2.385 14.505 -2.385 14.505 -14 14 C-14 13.67 -14 13.34 -14 13 C-7.565 12.505 -7.565 12.505 -1 12 C-0.67 8.04 -0.34 4.08 0 0 Z " fill="#683B36" transform="translate(32,151)"/>
<path d="M0 0 C8.58 0 17.16 0 26 0 C26 4.29 26 8.58 26 13 C25.01 13 24.02 13 23 13 C22.505 8.05 22.505 8.05 22 3 C14.74 2.67 7.48 2.34 0 2 C0 1.34 0 0.68 0 0 Z " fill="#394C71" transform="translate(96,20)"/>
<path d="M0 0 C2.33837891 -0.34057617 2.33837891 -0.34057617 5.2265625 -0.29296875 C6.7734375 -0.2784668 6.7734375 -0.2784668 8.3515625 -0.26367188 C9.43179688 -0.23853516 10.51203125 -0.21339844 11.625 -0.1875 C12.71296875 -0.17396484 13.8009375 -0.16042969 14.921875 -0.14648438 C17.61507409 -0.11104754 20.30729374 -0.06164331 23 0 C23 0.99 23 1.98 23 3 C15.41 3.33 7.82 3.66 0 4 C-0.33 8.29 -0.66 12.58 -1 17 C-1.33 17 -1.66 17 -2 17 C-2.05398987 14.72942623 -2.09278742 12.45848712 -2.125 10.1875 C-2.14820312 8.92292969 -2.17140625 7.65835937 -2.1953125 6.35546875 C-2 3 -2 3 0 0 Z " fill="#7D8AA4" transform="translate(72,17)"/>
<path d="M0 0 C0.33 0.99 0.66 1.98 1 3 C-6.59 3 -14.18 3 -22 3 C-22 6.96 -22 10.92 -22 15 C-22.99 15 -23.98 15 -25 15 C-24.85970581 12.8537974 -24.71261836 10.70803782 -24.5625 8.5625 C-24.48128906 7.36753906 -24.40007812 6.17257813 -24.31640625 4.94140625 C-24 2 -24 2 -23 1 C-21.29436222 0.84259395 -19.58272756 0.74906608 -17.87109375 0.68359375 C-16.83662109 0.64169922 -15.80214844 0.59980469 -14.73632812 0.55664062 C-13.1034082 0.49766602 -13.1034082 0.49766602 -11.4375 0.4375 C-9.7987793 0.37272461 -9.7987793 0.37272461 -8.12695312 0.30664062 C-5.41810436 0.20017932 -2.70916008 0.09816484 0 0 Z " fill="#4D6595" transform="translate(95,19)"/>
<path d="M0 0 C0.33 0 0.66 0 1 0 C1 3.3 1 6.6 1 10 C4.96 10 8.92 10 13 10 C13 10.33 13 10.66 13 11 C9.37 11 5.74 11 2 11 C2 14.96 2 18.92 2 23 C5.63 23 9.26 23 13 23 C13 23.33 13 23.66 13 24 C11.02090602 24.02686553 9.04171029 24.04633375 7.0625 24.0625 C5.96035156 24.07410156 4.85820312 24.08570312 3.72265625 24.09765625 C1 24 1 24 0 23 C-0.14355117 18.99779347 -0.04216403 15.00558317 0 11 C-3.96 11 -7.92 11 -12 11 C-12 10.67 -12 10.34 -12 10 C-8.04 10 -4.08 10 0 10 C0 6.7 0 3.4 0 0 Z " fill="#7B5D5A" transform="translate(134,75)"/>
<path d="M0 0 C16.335 0.495 16.335 0.495 33 1 C33 1.66 33 2.32 33 3 C21.78 3 10.56 3 -1 3 C-0.67 2.01 -0.34 1.02 0 0 Z " fill="#969897" transform="translate(73,185)"/>
<path d="M0 0 C0.33 0 0.66 0 1 0 C1 7.59 1 15.18 1 23 C4.465 22.505 4.465 22.505 8 22 C8.33 15.4 8.66 8.8 9 2 C9.33 2 9.66 2 10 2 C10 9.59 10 17.18 10 25 C6.7 25 3.4 25 0 25 C0 16.75 0 8.5 0 0 Z " fill="#989A99" transform="translate(149,151)"/>
<path d="M0 0 C1.98 0.99 1.98 0.99 4 2 C4 4.31 4 6.62 4 9 C10.27 9.33 16.54 9.66 23 10 C23 10.33 23 10.66 23 11 C15.41 11.33 7.82 11.66 0 12 C0 8.04 0 4.08 0 0 Z " fill="#B74137" transform="translate(18,47)"/>
<path d="M0 0 C0.33 0 0.66 0 1 0 C1 3.96 1 7.92 1 12 C4.63 12 8.26 12 12 12 C12 16.29 12 20.58 12 25 C11.67 25 11.34 25 11 25 C11 21.04 11 17.08 11 13 C7.7 13 4.4 13 1 13 C1 16.3 1 19.6 1 23 C0.67 23 0.34 23 0 23 C0 19.7 0 16.4 0 13 C-4.62 13 -9.24 13 -14 13 C-14 12.67 -14 12.34 -14 12 C-9.38 12 -4.76 12 0 12 C0 8.04 0 4.08 0 0 Z " fill="#EEC1C1" transform="translate(96,138)"/>
<path d="M0 0 C0.33 0 0.66 0 1 0 C1 3.3 1 6.6 1 10 C4.3 10 7.6 10 11 10 C11 6.7 11 3.4 11 0 C11.33 0 11.66 0 12 0 C12 3.63 12 7.26 12 11 C8.37 11 4.74 11 1 11 C1 14.96 1 18.92 1 23 C0.67 23 0.34 23 0 23 C0 19.04 0 15.08 0 11 C-4.62 11 -9.24 11 -14 11 C-14 10.67 -14 10.34 -14 10 C-9.38 10 -4.76 10 0 10 C0 6.7 0 3.4 0 0 Z " fill="#EDC4C5" transform="translate(96,87)"/>
<path d="M0 0 C0.99 0.495 0.99 0.495 2 1 C2 4.63 2 8.26 2 12 C5.63 12.33 9.26 12.66 13 13 C13 13.66 13 14.32 13 15 C8.71 15 4.42 15 0 15 C0 10.05 0 5.1 0 0 Z " fill="#F5CFCB" transform="translate(108,163)"/>
<path d="M0 0 C2.64 0 5.28 0 8 0 C8 1.65 8 3.3 8 5 C2.25 6.125 2.25 6.125 0 5 C0 3.35 0 1.7 0 0 Z " fill="#D73D35" transform="translate(110,180)"/>
<path d="M0 0 C3.3 0 6.6 0 10 0 C10 3.3 10 6.6 10 10 C6.04 10 2.08 10 -2 10 C-2 9.67 -2 9.34 -2 9 C1.3 9 4.6 9 8 9 C8 6.69 8 4.38 8 2 C5.36 1.67 2.72 1.34 0 1 C0 0.67 0 0.34 0 0 Z " fill="#CE5549" transform="translate(21,139)"/>
<path d="M0 0 C6.93 0.495 6.93 0.495 14 1 C14 8.92 14 16.84 14 25 C13.67 25 13.34 25 13 25 C13 17.41 13 9.82 13 2 C9.7 2.33 6.4 2.66 3 3 C2.01 2.01 1.02 1.02 0 0 Z " fill="#858584" transform="translate(146,34)"/>
<path d="M0 0 C0.33 0 0.66 0 1 0 C1 2.97 1 5.94 1 9 C-4.61 9 -10.22 9 -16 9 C-16 8.67 -16 8.34 -16 8 C-11.38 7.67 -6.76 7.34 -2 7 C-1.34 4.69 -0.68 2.38 0 0 Z " fill="#CD3B30" transform="translate(40,48)"/>
<path d="M0 0 C0.33 0 0.66 0 1 0 C1 2.97 1 5.94 1 9 C-0.79133978 9.05391993 -2.58313899 9.09275571 -4.375 9.125 C-5.37273437 9.14820313 -6.37046875 9.17140625 -7.3984375 9.1953125 C-10 9 -10 9 -12 7 C-6.555 6.505 -6.555 6.505 -1 6 C-0.67 4.02 -0.34 2.04 0 0 Z " fill="#989A9A" transform="translate(144,179)"/>
<path d="M0 0 C2.67927341 4.01891012 2.15601248 6.24161923 2 11 C1.01 11.33 0.02 11.66 -1 12 C-1.33 8.37 -1.66 4.74 -2 1 C-1.34 0.67 -0.68 0.34 0 0 Z " fill="#A3877F" transform="translate(123,177)"/>
<path d="M0 0 C3.3 0 6.6 0 10 0 C10 0.99 10 1.98 10 3 C6.37 3 2.74 3 -1 3 C-0.67 2.01 -0.34 1.02 0 0 Z " fill="#F2B0AE" transform="translate(97,160)"/>
<path d="M0 0 C3.63 0 7.26 0 11 0 C7.71299843 1.64350079 5.52069985 2.41321669 2 3 C1.67 5.97 1.34 8.94 1 12 C0.67 12 0.34 12 0 12 C0 8.04 0 4.08 0 0 Z " fill="#F5DDDD" transform="translate(97,98)"/>
<path d="M0 0 C3.3 0 6.6 0 10 0 C10 0.66 10 1.32 10 2 C6.7 2.33 3.4 2.66 0 3 C0 2.01 0 1.02 0 0 Z " fill="#D2524D" transform="translate(84,100)"/>
<path d="M0 0 C6.93 0.495 6.93 0.495 14 1 C13.67 1.66 13.34 2.32 13 3 C11.39667209 3.08121924 9.79215974 3.13929134 8.1875 3.1875 C7.29417969 3.22230469 6.40085938 3.25710937 5.48046875 3.29296875 C3 3 3 3 0 0 Z " fill="#7E7F7F" transform="translate(146,34)"/>
</svg>
